<svg xmlns="http://www.w3.org/2000/svg" xmlns:xlink="http://www.w3.org/1999/xlink" viewBox="0,0,256,256" width="48px" height="48px"><g fill="#1e16da" fill-rule="nonzero" stroke="none" stroke-width="1" stroke-linecap="butt" stroke-linejoin="miter" stroke-miterlimit="10" stroke-dasharray="" stroke-dashoffset="0" font-family="none" font-weight="none" font-size="none" text-anchor="none" style="mix-blend-mode: normal"><g transform="scale(10.66667,10.66667)"><path d="M3,7c0.29688,0.01172 1.36328,-1.33984 1.58984,-1.5c1.65625,2.14453 1.94922,2.97266 5.77344,6.23047c-0.23047,-1.48437 -2.76953,-5.86328 -4.18359,-7.23047c0.6875,-0.66016 1.71484,-2.05078 2.11719,-2.5c0.42188,1.15625 2.13672,5.77734 3.70313,8.5c1.19531,-2.14453 3.19531,-7.67578 3.17578,-8.5c0.68359,0.59766 1.84766,1.89453 2.60156,2.51563c-1.47266,1.07422 -3.69922,5.98047 -4.62109,8.28906c-0.10937,0.33594 -0.09766,1.21875 -0.09766,1.21875c0.82422,0.59766 3.72656,3.52344 4.23438,3.97656c-1.55078,-6.58984 0.64453,-11.01562 2.11719,-12.5c0.23828,0.23438 0.83594,0.77344 1.58984,1.5c-0.78125,0.98828 -2.05469,3.30469 -2.11719,6c-0.09375,3.875 0.48047,5.97656 1.58594,7.5c-0.49219,0.57422 -0.88672,0.71484 -1.58594,1.5c-1.10937,-0.96094 -5.82422,-5.20703 -5.82422,-5.20703v2.70703c0.03516,0.17188 -0.17578,1.77344 0.53125,2.5h-3.17969c0.51953,-0.66406 0.51953,-2.10937 0.53125,-2.55469v-4.66016c-0.61328,-0.55859 -3.57813,-3.15625 -3.84766,-3.42187c0.32031,1.56641 0.32813,6.46484 -1.97656,10.13672c-0.1875,-0.25781 -2.15625,-1.94141 -2.11719,-2c0.70703,-1.04687 2.09375,-3.79687 2.11719,-6c0.04297,-4.01953 -1.43359,-5.51562 -2.11719,-6.5z"></path></g></g></svg>